<svg width="111" height="36" viewBox="0 0 111 36" fill="none" xmlns="http://www.w3.org/2000/svg">
<path fill-rule="evenodd" clip-rule="evenodd" d="M48.7204 12.7275C49.2877 12.2863 50.1053 12.3878 50.5474 12.95C50.9894 13.5161 50.8916 14.3321 50.3244 14.7732C48.7517 16.003 46.9757 16.9752 45.0627 17.635C43.2084 18.2713 41.2211 18.6149 39.1516 18.6149C37.0822 18.6149 35.1027 18.2674 33.2484 17.635C31.3354 16.9791 29.5632 16.0069 27.9906 14.781H27.9828C27.4116 14.3399 27.3138 13.52 27.752 12.9539C28.194 12.3878 29.0155 12.2824 29.5828 12.7236L29.5906 12.7314C30.9285 13.7777 32.4464 14.6093 34.0934 15.1754C35.6777 15.718 37.3756 16.0147 39.1477 16.0147C40.9199 16.0147 42.6255 15.718 44.2099 15.1754C45.8608 14.6093 47.3825 13.7738 48.7165 12.7314L48.7204 12.7275Z" fill="white"/>
<path fill-rule="evenodd" clip-rule="evenodd" d="M25.5964 9.733C25.5964 10.2679 25.4086 10.7286 25.0292 11.1151C24.6536 11.4977 24.1881 11.689 23.6404 11.689C23.0927 11.689 22.6076 11.5016 22.236 11.1307C21.8604 10.7559 21.6805 10.2913 21.6805 9.73691C21.6805 9.18252 21.8722 8.72183 22.2556 8.34703C22.6428 7.96833 23.1006 7.78094 23.6404 7.78094C24.1803 7.78094 24.638 7.97614 25.0253 8.36656C25.4047 8.75306 25.5964 9.20985 25.5964 9.73691V9.733Z" fill="white"/>
<path fill-rule="evenodd" clip-rule="evenodd" d="M56.6149 9.733C56.6149 10.2679 56.4272 10.7286 56.0477 11.1151C55.6721 11.4977 55.2066 11.689 54.6589 11.689C54.1112 11.689 53.6261 11.5016 53.2545 11.1307C52.8789 10.7559 52.699 10.2913 52.699 9.73691C52.699 9.18252 52.8946 8.72183 53.2741 8.34703C53.6613 7.96833 54.1191 7.78094 54.6589 7.78094C55.1988 7.78094 55.6565 7.97614 56.0438 8.36656C56.4232 8.75306 56.6188 9.20985 56.6188 9.73691L56.6149 9.733Z" fill="white"/>
<path fill-rule="evenodd" clip-rule="evenodd" d="M39.9145 2.31125C38.4866 3.74016 37.5985 5.70784 37.5985 7.87463V14.9606C38.1775 15.027 38.7682 15.0621 39.3707 15.0621C39.8206 15.0621 40.2626 15.0426 40.7008 15.0036V7.87073C40.7008 6.55894 41.2406 5.36428 42.1091 4.49756C42.9776 3.63084 44.1747 3.09207 45.493 3.09207H48.8848V0H45.493C43.3218 0 41.3463 0.886238 39.9184 2.31125H39.9145ZM37.5985 19.4621V35.8516H40.7008V19.5011C40.2626 19.5324 39.8167 19.548 39.3707 19.548C38.7761 19.548 38.1814 19.5207 37.5985 19.4621ZM8.26221 2.31125C6.83432 3.74016 5.94629 5.70784 5.94629 7.87463V14.5195H0V17.3695H5.94238V35.8477H9.04462V17.3695H16.5205V16.3544C16.5205 15.3706 15.6912 14.5195 14.6936 14.5195H9.04462V7.87463C9.04462 6.56285 9.58448 5.36818 10.4529 4.50146C11.3214 3.63475 12.5185 3.09598 13.8329 3.09598H17.2286V0H13.8329C11.6618 0 9.68619 0.886238 8.2583 2.31125H8.26221ZM73.5971 10.1703C70.7882 10.1703 68.2337 11.3181 66.3833 13.1608C64.5329 15.0075 63.3867 17.5569 63.3867 20.36V35.8477H66.4889V20.36C66.4889 18.4119 67.2909 16.6355 68.5779 15.351C69.8689 14.0627 71.645 13.2662 73.601 13.2662C75.557 13.2662 77.3331 14.0666 78.6201 15.351C79.9111 16.6394 80.7091 18.4119 80.7091 20.36V35.8477H83.8114V20.36C83.8114 17.5569 82.6612 15.0075 80.8109 13.1608C78.9605 11.3142 76.4098 10.1703 73.5971 10.1703ZM23.3157 14.5195H22.0639V35.8477H25.1661V16.3739C25.1661 15.3784 24.3524 14.5234 23.3157 14.5195ZM54.3303 14.5195H53.0784V35.8477H56.1768V16.3739C56.1768 15.3784 55.367 14.5234 54.3264 14.5195H54.3303ZM107.718 13.8284C105.684 11.5562 102.8 10.1586 99.2756 10.1586C95.7509 10.1586 92.8717 11.5562 90.8335 13.8284C88.7249 16.1865 87.5513 19.466 87.5513 23.0773C87.5513 26.6886 88.721 29.972 90.8335 32.3262C92.8717 34.6023 95.7548 36 99.2756 36C100.844 36 102.394 35.7111 103.849 35.1645C105.304 34.614 106.658 33.8098 107.835 32.7713L105.981 30.667C105.05 31.4829 103.994 32.1154 102.863 32.5409C101.732 32.9665 100.516 33.1929 99.2756 33.1929C96.6037 33.1929 94.4325 32.1505 92.9225 30.46C91.2755 28.6251 90.364 26.0015 90.364 23.0734C90.364 20.1453 91.2755 17.5217 92.9225 15.6868C94.4365 13.9963 96.6037 12.9578 99.2756 12.9578C101.948 12.9578 104.119 13.9963 105.633 15.6868C107.01 17.225 107.874 19.3137 108.117 21.6718H94.5264C93.4545 21.6718 92.6213 22.519 92.6213 23.5146V24.475H109.596C110.37 24.475 111 23.8464 111 23.0734C111 19.4621 109.83 16.1826 107.718 13.8245V13.8284Z" fill="white"/>
<path fill-rule="evenodd" clip-rule="evenodd" d="M48.7204 12.7275C49.2877 12.2863 50.1053 12.3878 50.5474 12.95C50.9894 13.5161 50.8916 14.3321 50.3244 14.7732C48.7517 16.003 46.9757 16.9752 45.0627 17.635C43.2084 18.2713 41.2211 18.6149 39.1516 18.6149C37.0822 18.6149 35.1027 18.2674 33.2484 17.635C31.3354 16.9791 29.5632 16.0069 27.9906 14.781H27.9828C27.4116 14.3399 27.3138 13.52 27.752 12.9539C28.194 12.3878 29.0155 12.2824 29.5828 12.7236L29.5906 12.7314C30.9285 13.7777 32.4464 14.6093 34.0934 15.1754C35.6777 15.718 37.3756 16.0147 39.1477 16.0147C40.9199 16.0147 42.6255 15.718 44.2099 15.1754C45.8608 14.6093 47.3825 13.7738 48.7165 12.7314L48.7204 12.7275Z" fill="white"/>
<path fill-rule="evenodd" clip-rule="evenodd" d="M25.5964 9.733C25.5964 10.2679 25.4086 10.7286 25.0292 11.1151C24.6536 11.4977 24.1881 11.689 23.6404 11.689C23.0927 11.689 22.6076 11.5016 22.236 11.1307C21.8604 10.7559 21.6805 10.2913 21.6805 9.73691C21.6805 9.18252 21.8722 8.72183 22.2556 8.34703C22.6428 7.96833 23.1006 7.78094 23.6404 7.78094C24.1803 7.78094 24.638 7.97614 25.0253 8.36656C25.4047 8.75306 25.5964 9.20985 25.5964 9.73691V9.733Z" fill="white"/>
<path fill-rule="evenodd" clip-rule="evenodd" d="M56.6149 9.733C56.6149 10.2679 56.4272 10.7286 56.0477 11.1151C55.6721 11.4977 55.2066 11.689 54.6589 11.689C54.1112 11.689 53.6261 11.5016 53.2545 11.1307C52.8789 10.7559 52.699 10.2913 52.699 9.73691C52.699 9.18252 52.8946 8.72183 53.2741 8.34703C53.6613 7.96833 54.1191 7.78094 54.6589 7.78094C55.1988 7.78094 55.6565 7.97614 56.0438 8.36656C56.4232 8.75306 56.6188 9.20985 56.6188 9.73691L56.6149 9.733Z" fill="white"/>
<path fill-rule="evenodd" clip-rule="evenodd" d="M39.9145 2.31125C38.4866 3.74016 37.5985 5.70784 37.5985 7.87463V14.9606C38.1775 15.027 38.7682 15.0621 39.3707 15.0621C39.8206 15.0621 40.2626 15.0426 40.7008 15.0036V7.87073C40.7008 6.55894 41.2406 5.36428 42.1091 4.49756C42.9776 3.63084 44.1747 3.09207 45.493 3.09207H48.8848V0H45.493C43.3218 0 41.3463 0.886238 39.9184 2.31125H39.9145ZM37.5985 19.4621V35.8516H40.7008V19.5011C40.2626 19.5324 39.8167 19.548 39.3707 19.548C38.7761 19.548 38.1814 19.5207 37.5985 19.4621ZM8.26221 2.31125C6.83432 3.74016 5.94629 5.70784 5.94629 7.87463V14.5195H0V17.3695H5.94238V35.8477H9.04462V17.3695H16.5205V16.3544C16.5205 15.3706 15.6912 14.5195 14.6936 14.5195H9.04462V7.87463C9.04462 6.56285 9.58448 5.36818 10.4529 4.50146C11.3214 3.63475 12.5185 3.09598 13.8329 3.09598H17.2286V0H13.8329C11.6618 0 9.68619 0.886238 8.2583 2.31125H8.26221ZM73.5971 10.1703C70.7882 10.1703 68.2337 11.3181 66.3833 13.1608C64.5329 15.0075 63.3867 17.5569 63.3867 20.36V35.8477H66.4889V20.36C66.4889 18.4119 67.2909 16.6355 68.5779 15.351C69.8689 14.0627 71.645 13.2662 73.601 13.2662C75.557 13.2662 77.3331 14.0666 78.6201 15.351C79.9111 16.6394 80.7091 18.4119 80.7091 20.36V35.8477H83.8114V20.36C83.8114 17.5569 82.6612 15.0075 80.8109 13.1608C78.9605 11.3142 76.4098 10.1703 73.5971 10.1703ZM23.3157 14.5195H22.0639V35.8477H25.1661V16.3739C25.1661 15.3784 24.3524 14.5234 23.3157 14.5195ZM54.3303 14.5195H53.0784V35.8477H56.1768V16.3739C56.1768 15.3784 55.367 14.5234 54.3264 14.5195H54.3303ZM107.718 13.8284C105.684 11.5562 102.8 10.1586 99.2756 10.1586C95.7509 10.1586 92.8717 11.5562 90.8335 13.8284C88.7249 16.1865 87.5513 19.466 87.5513 23.0773C87.5513 26.6886 88.721 29.972 90.8335 32.3262C92.8717 34.6023 95.7548 36 99.2756 36C100.844 36 102.394 35.7111 103.849 35.1645C105.304 34.614 106.658 33.8098 107.835 32.7713L105.981 30.667C105.05 31.4829 103.994 32.1154 102.863 32.5409C101.732 32.9665 100.516 33.1929 99.2756 33.1929C96.6037 33.1929 94.4325 32.1505 92.9225 30.46C91.2755 28.6251 90.364 26.0015 90.364 23.0734C90.364 20.1453 91.2755 17.5217 92.9225 15.6868C94.4365 13.9963 96.6037 12.9578 99.2756 12.9578C101.948 12.9578 104.119 13.9963 105.633 15.6868C107.01 17.225 107.874 19.3137 108.117 21.6718H94.5264C93.4545 21.6718 92.6213 22.519 92.6213 23.5146V24.475H109.596C110.37 24.475 111 23.8464 111 23.0734C111 19.4621 109.83 16.1826 107.718 13.8245V13.8284Z" fill="white"/>
</svg>
